<svg id="Layer_1" data-name="Layer 1" xmlns="http://www.w3.org/2000/svg" viewBox="0 0 1500 1730.5"><defs><style>.cls-1{fill:#a2c8cb;}.cls-2{fill:none;stroke:#000;stroke-miterlimit:10;}.cls-3{fill:#22b573;}.cls-4{fill:#d09867;}.cls-5{fill:#bd6e2a;}.cls-6{fill:#c68247;}.cls-7{fill:#459196;}</style></defs><title>connect plus</title><path class="cls-1" d="M614.5,0V1730h.5c477.73,0,865-387.27,865-865S1092.73,0,615,0" transform="translate(-114.5 0.5)"/><path class="cls-2" d="M1614.5,1730" transform="translate(-114.5 0.5)"/><path class="cls-3" d="M614.5,1730" transform="translate(-114.5 0.5)"/><polyline class="cls-4" points="999.5 865 1499.5 0 1500 0.5 500 0.5"/><polygon class="cls-5" points="999.5 865 500.5 1730 1499.5 1730 999.5 865"/><polyline class="cls-6" points="501 1729.5 0 865.5 500 0.5 1000 865.5"/><path class="cls-7" d="M1443.33,1114.92a870,870,0,0,0-.21-500.54,432.68,432.68,0,0,0,.21,500.54Z" transform="translate(-114.5 0.5)"/></svg>